#!OML:ASF F:\VICON\USERDATA\INSTALL\Justin_Nancy\Justin_Nancy.ASF
:FULLY-SPECIFIED
:DEGREES
48
root 0.365584 16.9935 -1.19632 -7.55303 2.86528 -3.19772
lowerback 10.4202 0.0172648 1.20285
upperback -0.193783 0.433572 4.20679
thorax -6.08834 0.245441 3.68195
lowerneck -23.3211 -6.1208 -9.75127
upperneck 22.262 -6.50347 5.20261
head 11.6428 -3.108 2.4321
rclavicle -8.29926e-015 7.15625e-015
rhumerus -44.7652 1.66853 -81.6832
rradius 91.731
rwrist -3.44461
rhand -21.6765 30.3523
rfingers 7.12502
rthumb 4.72118 0.424908
lclavicle -8.29926e-015 7.15625e-015
lhumerus -50.1742 -0.209307 96.9907
lradius 97.2828
lwrist 37.167
lhand -19.4938 10.7509
lfingers 7.12502
lthumb 6.82851 40.6208
rfemur -14.5802 2.29245 28.2345
rtibia 44.6497
rfoot -11.5525 -12.1998
rtoes -2.74048
lfemur -19.4168 -4.71989 -13.3474
ltibia 83.2352
lfoot -6.80819 1.64308
ltoes -18.1031
49
root 0.346984 17.0193 -0.803103 -7.67262 3.45317 -3.1508
lowerback 10.6707 0.0752619 1.15411
upperback -0.492046 0.51779 4.05339
thorax -6.54965 0.290055 3.54106
lowerneck -22.1155 -6.10171 -9.64193
upperneck 22.0146 -6.64662 5.23743
head 11.3315 -3.17863 2.42132
rclavicle 2.78299e-015 2.06736e-014
rhumerus -43.9618 1.29293 -81.8331
rradius 91.1533
rwrist -3.95465
rhand -21.2734 29.1167
rfingers 7.12502
rthumb 5.11038 -0.801677
lclavicle 2.78299e-015 2.06736e-014
lhumerus -52.0589 -0.096868 96.9873
lradius 97.7364
lwrist 38.0591
lhand -19.1523 10.5297
lfingers 7.12502
lthumb 7.15811 40.3886
rfemur -13.0272 1.83112 28.2774
rtibia 45.0357
rfoot -12.479 -12.4637
rtoes -4.41213
lfemur -21.5732 -4.87536 -13.881
ltibia 82.3818
lfoot -7.18771 1.68943
ltoes -17.4899
50
root 0.329506 17.0541 -0.412966 -7.82484 3.94664 -2.99262
lowerback 10.8834 0.220957 1.14924
upperback -0.46216 0.701778 3.80858
thorax -6.64428 0.376129 3.25452
lowerneck -21.6259 -6.30671 -9.52822
upperneck 21.7223 -7.0482 5.36196
head 11.1639 -3.34182 2.38717
rclavicle 7.95139e-015 2.78299e-014
rhumerus -43.1232 0.595436 -82.0982
rradius 91.3854
rwrist -4.74463
rhand -20.914 27.9207
rfingers 7.12502
rthumb 5.45742 -1.98898
lclavicle 7.95139e-015 2.78299e-014
lhumerus -53.1904 -0.526122 96.9802
lradius 98.4777
lwrist 38.3228
lhand -18.7411 10.1761
lfingers 7.12502
lthumb 7.55502 40.0211
rfemur -11.6329 1.39879 28.1897
rtibia 45.5526
rfoot -12.9478 -12.3696
rtoes -6.95449
lfemur -23.3701 -4.87096 -14.6135
ltibia 81.0234
lfoot -7.41137 1.71631
ltoes -15.4677
51
root 0.309371 17.0917 -0.0194133 -8.00823 4.42389 -3.39771
lowerback 10.9445 0.272541 1.72725
upperback -0.242674 0.832654 3.7167
thorax -6.44231 0.417794 2.80511
lowerneck -21.5836 -6.52123 -9.49753
upperneck 21.3148 -7.41722 5.63005
head 11.045 -3.47173 2.41656
rclavicle -1.49089e-015 -2.14687e-014
rhumerus -42.3669 -0.0290069 -82.4877
rradius 92.2164
rwrist -5.74097
rhand -20.7483 27.5363
rfingers 7.12502
rthumb 5.61741 -2.36925
lclavicle -1.49089e-015 -2.14687e-014
lhumerus -53.959 -1.15272 96.9279
lradius 99.476
lwrist 38.2324
lhand -18.0837 9.64861
lfingers 7.12502
lthumb 8.18956 39.4699
rfemur -10.3938 0.991667 28.7662
rtibia 46.2437
rfoot -12.8724 -12.0199
rtoes -9.78914
lfemur -25.1203 -4.74761 -14.6606
ltibia 79.3957
lfoot -7.6006 1.64249
ltoes -14.1083
52
root 0.299015 17.1368 0.375106 -8.10393 4.60122 -3.67915
lowerback 11.0653 0.434701 2.33925
upperback -0.068691 1.11684 3.58512
thorax -6.32205 0.53507 2.2715
lowerneck -22.0295 -6.82579 -9.81073
upperneck 21.1731 -7.86529 6.30043
head 11.1593 -3.6066 2.62638
rclavicle -1.02871e-014 -2.54444e-014
rhumerus -41.6144 -0.355997 -82.9512
rradius 93.2917
rwrist -6.99083
rhand -20.8654 26.9522
rfingers 7.12502
rthumb 5.50427 -2.95631
lclavicle -1.02871e-014 -2.54444e-014
lhumerus -54.6231 -1.97815 96.954
lradius 100.504
lwrist 37.7691
lhand -17.389 9.19473
lfingers 7.12502
lthumb 8.85999 38.9887
rfemur -9.36493 0.672991 29.159
rtibia 47.1325
rfoot -12.366 -11.321
rtoes -11.8696
lfemur -26.7355 -4.40755 -14.8995
ltibia 77.4207
lfoot -7.79671 1.97422
ltoes -13.267
53
root 0.298711 17.169 0.759019 -8.08752 4.66738 -3.93884
lowerback 11.2196 0.685123 3.07531
upperback -0.0991777 1.54181 3.37874
thorax -6.42652 0.715459 1.56782
lowerneck -21.8168 -7.15865 -10.052
upperneck 20.9289 -8.44139 6.97108
head 11.1273 -3.80812 2.8142
rclavicle 1.98288e-014 3.33958e-014
rhumerus -41.0518 -0.440207 -83.4155
rradius 94.2977
rwrist -8.24865
rhand -21.4581 26.5366
rfingers 7.12502
rthumb 4.93203 -3.38599
lclavicle 1.98288e-014 3.33958e-014
lhumerus -55.4171 -3.11752 96.9826
lradius 101.469
lwrist 37.0623
lhand -16.9015 9.22434
lfingers 7.12502
lthumb 9.33039 38.9979
rfemur -8.6764 0.268714 29.4019
rtibia 48.2009
rfoot -11.2517 -10.3379
rtoes -12.4532
lfemur -28.241 -3.94589 -15.2319
ltibia 75.1351
lfoot -8.13937 2.4983
ltoes -12.4824
54
root 0.298113 17.2071 1.14106 -7.97343 4.71501 -4.06233
lowerback 11.2725 1.01429 3.72087
upperback -0.287889 2.05734 3.08342
thorax -6.62669 0.93774 0.807115
lowerneck -20.939 -7.46937 -10.1389
upperneck 20.6209 -9.05724 7.46794
head 10.9411 -4.05604 2.91998
rclavicle 2.42766e-014 2.62396e-014
rhumerus -41.1216 -0.690218 -83.9164
rradius 95.6151
rwrist -9.20478
rhand -21.9715 26.6456
rfingers 7.12502
rthumb 4.4363 -3.28789
lclavicle 2.42766e-014 2.62396e-014
lhumerus -56.7386 -4.5541 97.0127
lradius 102.71
lwrist 36.4201
lhand -16.3229 9.0555
lfingers 7.12502
lthumb 9.8886 38.8033
rfemur -8.29295 -0.0673854 29.4551
rtibia 49.4375
rfoot -9.90539 -9.24069
rtoes -13.2864
lfemur -29.5787 -3.46322 -15.6936
ltibia 72.3515
lfoot -8.74325 2.76675
ltoes -11.968
55
root 0.296532 17.2554 1.53184 -7.86841 4.40924 -4.19053
lowerback 11.3986 1.41796 4.33762
upperback -0.428912 2.67398 2.82595
thorax -6.80138 1.20854 0.0834973
lowerneck -20.5964 -7.69914 -10.265
upperneck 20.5606 -9.5024 7.95542
head 10.9348 -4.21859 3.0485
rclavicle 5.36719e-015 -1.98785e-015
rhumerus -41.3622 -0.827465 -84.4702
rradius 97.0299
rwrist -10.0797
rhand -21.9745 27.0324
rfingers 7.12502
rthumb 4.43341 -2.90119
lclavicle 5.36719e-015 -1.98785e-015
lhumerus -57.8831 -5.87756 96.9714
lradius 103.921
lwrist 35.6882
lhand -15.7133 8.60101
lfingers 7.12502
lthumb 10.4767 38.3199
rfemur -8.01118 0.0378487 29.5603
rtibia 50.7613
rfoot -8.30645 -7.99788
rtoes -13.48
lfemur -30.5669 -2.7743 -16.0649
ltibia 69.0918
lfoot -9.48645 2.68749
ltoes -10.9373
56
root 0.295688 17.3088 1.93256 -7.74688 4.17469 -4.20682
lowerback 11.3769 1.78334 4.76021
upperback -0.47403 3.2023 2.61098
thorax -6.78752 1.44719 -0.466564
lowerneck -20.3892 -7.92168 -10.4563
upperneck 20.3983 -9.8707 8.35648
head 10.9096 -4.35949 3.16507
rclavicle -1.27222e-014 3.02153e-014
rhumerus -41.2942 -0.42677 -84.8643
rradius 98.2759
rwrist -10.8753
rhand -21.9859 27.1725
rfingers 7.12502
rthumb 4.42238 -2.76131
lclavicle -1.27222e-014 3.02153e-014
lhumerus -58.3901 -7.04715 96.9336
lradius 104.596
lwrist 34.8611
lhand -15.3064 8.38906
lfingers 7.12502
lthumb 10.8692 38.0878
rfemur -7.86471 0.0970885 29.4696
rtibia 52.1085
rfoot -5.97501 -6.59417
rtoes -13.0691
lfemur -31.1702 -2.24854 -16.5347
ltibia 65.309
lfoot -9.72502 2.32995
ltoes -9.58682
57
root 0.290532 17.3626 2.33935 -7.59436 4.15446 -3.92376
lowerback 11.1644 2.08706 4.75057
upperback -0.517319 3.57609 2.37928
thorax -6.68333 1.62806 -0.757942
lowerneck -19.9605 -8.07388 -10.6424
upperneck 20.2535 -10.1358 8.64188
head 10.8335 -4.47418 3.26222
rclavicle 1.14053e-014 -1.59028e-014
rhumerus -41.1831 0.336266 -85.1965
rradius 99.4455
rwrist -11.1503
rhand -22.0782 27.0844
rfingers 7.12502
rthumb 4.33323 -2.8513
lclavicle 1.14053e-014 -1.59028e-014
lhumerus -59.0337 -7.94458 96.858
lradius 105.289
lwrist 34.0954
lhand -14.9537 8.26122
lfingers 7.12502
lthumb 11.2094 37.9418
rfemur -7.83585 -0.0325171 28.9573
rtibia 53.4709
rfoot -3.35496 -5.09148
rtoes -11.7654
lfemur -31.4859 -2.02354 -17.3389
ltibia 61.0675
lfoot -9.44837 1.78543
ltoes -10.1937
